<svg width="1400" height="640" viewBox="0 0 1400 640" fill="none" xmlns="http://www.w3.org/2000/svg">
  <defs>
    <linearGradient id="bg" x1="700" y1="0" x2="700" y2="640" gradientUnits="userSpaceOnUse">
      <stop stop-color="#F8F3EB"/>
      <stop offset="1" stop-color="#F0E6D9"/>
    </linearGradient>
    <marker id="arrow" markerWidth="12" markerHeight="12" refX="10" refY="6" orient="auto">
      <path d="M0 0L12 6L0 12V0Z" fill="#8A715B"/>
    </marker>
  </defs>

  <rect width="1400" height="640" rx="28" fill="url(#bg)"/>

  <text x="72" y="66" fill="#214237" font-family="Georgia, serif" font-size="32" font-weight="700">Election Stream Monitor Runtime Flow</text>
  <text x="72" y="98" fill="#6B756E" font-family="Georgia, serif" font-size="16">Simple view of how source setup, session execution, detector logic, and alerts connect today.</text>

  <rect x="72" y="150" width="220" height="92" rx="18" fill="#FFFDF9" stroke="#D9CDBE"/>
  <text x="104" y="190" fill="#214237" font-family="Georgia, serif" font-size="22" font-weight="700">Frontend Setup</text>
  <text x="104" y="216" fill="#617068" font-family="Georgia, serif" font-size="14">Mode, path, detector choice</text>

  <rect x="344" y="150" width="220" height="92" rx="18" fill="#FFFDF9" stroke="#D9CDBE"/>
  <text x="376" y="190" fill="#214237" font-family="Georgia, serif" font-size="22" font-weight="700">Electron Bridge</text>
  <text x="376" y="216" fill="#617068" font-family="Georgia, serif" font-size="14">Starts sessions, serves media</text>

  <rect x="616" y="150" width="220" height="92" rx="18" fill="#FFFDF9" stroke="#D9CDBE"/>
  <text x="648" y="190" fill="#214237" font-family="Georgia, serif" font-size="22" font-weight="700">Session Runner</text>
  <text x="648" y="216" fill="#617068" font-family="Georgia, serif" font-size="14">Discovers files and updates progress</text>

  <rect x="888" y="150" width="220" height="92" rx="18" fill="#FFFDF9" stroke="#D9CDBE"/>
  <text x="920" y="190" fill="#214237" font-family="Georgia, serif" font-size="22" font-weight="700">Registry + Processor</text>
  <text x="920" y="216" fill="#617068" font-family="Georgia, serif" font-size="14">Picks detectors and runs them</text>

  <rect x="1160" y="150" width="168" height="92" rx="18" fill="#FFFDF9" stroke="#D9CDBE"/>
  <text x="1192" y="190" fill="#214237" font-family="Georgia, serif" font-size="22" font-weight="700">Detectors</text>
  <text x="1192" y="216" fill="#617068" font-family="Georgia, serif" font-size="14">Black and blur logic</text>

  <line x1="292" y1="196" x2="344" y2="196" stroke="#8A715B" stroke-width="3" marker-end="url(#arrow)"/>
  <line x1="564" y1="196" x2="616" y2="196" stroke="#8A715B" stroke-width="3" marker-end="url(#arrow)"/>
  <line x1="836" y1="196" x2="888" y2="196" stroke="#8A715B" stroke-width="3" marker-end="url(#arrow)"/>
  <line x1="1108" y1="196" x2="1160" y2="196" stroke="#8A715B" stroke-width="3" marker-end="url(#arrow)"/>

  <rect x="240" y="344" width="268" height="110" rx="18" fill="#FFFDF9" stroke="#D9CDBE"/>
  <text x="272" y="386" fill="#214237" font-family="Georgia, serif" font-size="24" font-weight="700">Alert Rules</text>
  <text x="272" y="412" fill="#617068" font-family="Georgia, serif" font-size="14">Turn detector facts into alerts</text>
  <text x="272" y="434" fill="#617068" font-family="Georgia, serif" font-size="14">Immediate and rolling-window logic</text>

  <rect x="566" y="344" width="268" height="110" rx="18" fill="#FFFDF9" stroke="#D9CDBE"/>
  <text x="598" y="386" fill="#214237" font-family="Georgia, serif" font-size="24" font-weight="700">Stores + Session Files</text>
  <text x="598" y="412" fill="#617068" font-family="Georgia, serif" font-size="14">CSV metrics and per-session snapshots</text>
  <text x="598" y="434" fill="#617068" font-family="Georgia, serif" font-size="14">results.jsonl, alerts.jsonl, progress.json</text>

  <rect x="892" y="344" width="340" height="110" rx="18" fill="#FFFDF9" stroke="#D9CDBE"/>
  <text x="924" y="386" fill="#214237" font-family="Georgia, serif" font-size="24" font-weight="700">Frontend Playback + Alerts</text>
  <text x="924" y="412" fill="#617068" font-family="Georgia, serif" font-size="14">Playback panel, session status, alert feed</text>
  <text x="924" y="434" fill="#617068" font-family="Georgia, serif" font-size="14">Reads detector catalog and session snapshots</text>

  <line x1="1244" y1="242" x2="1244" y2="300" stroke="#8A715B" stroke-width="3"/>
  <line x1="1244" y1="300" x2="508" y2="300" stroke="#8A715B" stroke-width="3"/>
  <line x1="508" y1="300" x2="508" y2="344" stroke="#8A715B" stroke-width="3" marker-end="url(#arrow)"/>

  <line x1="726" y1="242" x2="726" y2="344" stroke="#8A715B" stroke-width="3" marker-end="url(#arrow)"/>
  <line x1="998" y1="242" x2="998" y2="344" stroke="#8A715B" stroke-width="3" marker-end="url(#arrow)"/>

  <line x1="834" y1="398" x2="892" y2="398" stroke="#8A715B" stroke-width="3" marker-end="url(#arrow)"/>
  <line x1="508" y1="398" x2="566" y2="398" stroke="#8A715B" stroke-width="3" marker-end="url(#arrow)"/>

  <line x1="1062" y1="454" x2="1062" y2="530" stroke="#8A715B" stroke-width="3"/>
  <line x1="1062" y1="530" x2="454" y2="530" stroke="#8A715B" stroke-width="3"/>
  <line x1="454" y1="530" x2="454" y2="242" stroke="#8A715B" stroke-width="3" marker-end="url(#arrow)"/>

  <text x="80" y="588" fill="#6B756E" font-family="Georgia, serif" font-size="14">Current detector examples: video black-screen, image black-screen, normalized rolling blur.</text>
</svg>
